<svg xmlns="http://www.w3.org/2000/svg" xmlns:xlink="http://www.w3.org/1999/xlink" width="500" zoomAndPan="magnify" viewBox="0 0 375 374.999991" height="500" preserveAspectRatio="xMidYMid meet" version="1.0"><defs><g/></defs><rect x="-37.5" width="450" fill="#ffffff" y="-37.499999" height="449.999989" fill-opacity="1"/><rect x="-37.5" width="450" fill="#ffffff" y="-37.499999" height="449.999989" fill-opacity="1"/><rect x="-37.5" width="450" fill="#ffebea" y="-37.499999" height="449.999989" fill-opacity="1"/><g fill="#fff" fill-opacity="1"><g transform="translate(29.319868, 193.820759)"><g><path d="M 10.761719 -32.011719 L 29.980469 -32.011719 L 29.980469 -38.433594 L 4.335938 -38.433594 L 4.335938 0 L 29.980469 0 L 29.980469 -6.425781 L 10.761719 -6.425781 L 10.761719 -16.03125 L 26.738281 -16.03125 L 26.738281 -22.402344 L 10.761719 -22.402344 Z M 10.761719 -32.011719 "/></g></g></g><g fill="#fff" fill-opacity="1"><g transform="translate(79.065226, 193.820759)"><g><path d="M 10.761719 -6.425781 L 10.761719 -38.433594 L 4.335938 -38.433594 L 4.335938 0 L 24.984375 0 L 24.984375 -6.425781 Z M 10.761719 -6.425781 "/></g></g></g><g fill="#fff" fill-opacity="1"><g transform="translate(124.034084, 193.820759)"><g><path d="M 10.761719 -32.011719 L 29.980469 -32.011719 L 29.980469 -38.433594 L 4.335938 -38.433594 L 4.335938 0 L 29.980469 0 L 29.980469 -6.425781 L 10.761719 -6.425781 L 10.761719 -16.03125 L 26.738281 -16.03125 L 26.738281 -22.402344 L 10.761719 -22.402344 Z M 10.761719 -32.011719 "/></g></g></g><g fill="#fff" fill-opacity="1"><g transform="translate(173.779441, 193.820759)"><g><path d="M 30.691406 -38.433594 L 0 -38.433594 L 15.375 1.59375 Z M 15.375 -15.703125 L 9.445312 -32.066406 L 21.25 -32.066406 Z M 15.375 -15.703125 "/></g></g></g><g fill="#fff" fill-opacity="1"><g transform="translate(221.767914, 193.820759)"><g><path d="M 22.074219 -4.449219 L 23.773438 0 L 30.691406 0 L 15.320312 -39.535156 L 0 0 L 6.917969 0 L 8.566406 -4.449219 Z M 10.652344 -9.992188 L 15.320312 -23.335938 L 19.988281 -9.992188 Z M 10.652344 -9.992188 "/></g></g></g><g fill="#fff" fill-opacity="1"><g transform="translate(269.921124, 193.820759)"><g><path d="M 23.609375 -32.558594 L 23.609375 -38.433594 L 1.097656 -38.433594 L 1.097656 -32.558594 L 9.167969 -32.558594 L 9.167969 0 L 15.539062 0 L 15.539062 -32.558594 Z M 23.609375 -32.558594 "/></g></g></g><g fill="#fff" fill-opacity="1"><g transform="translate(311.9761, 193.820759)"><g/></g></g><g fill="#fff" fill-opacity="1"><g transform="translate(89.437381, 223.401136)"><g><path d="M 6.671875 0.203125 C 5.492188 0.203125 4.460938 -0.0507812 3.578125 -0.5625 C 2.703125 -1.082031 2.015625 -1.800781 1.515625 -2.71875 C 1.015625 -3.632812 0.765625 -4.695312 0.765625 -5.90625 C 0.765625 -7.101562 1.015625 -8.160156 1.515625 -9.078125 C 2.015625 -9.992188 2.703125 -10.707031 3.578125 -11.21875 C 4.460938 -11.738281 5.492188 -12 6.671875 -12 C 7.835938 -12 8.863281 -11.738281 9.75 -11.21875 C 10.644531 -10.707031 11.335938 -9.992188 11.828125 -9.078125 C 12.328125 -8.160156 12.578125 -7.101562 12.578125 -5.90625 C 12.578125 -4.695312 12.328125 -3.632812 11.828125 -2.71875 C 11.335938 -1.800781 10.644531 -1.082031 9.75 -0.5625 C 8.863281 -0.0507812 7.835938 0.203125 6.671875 0.203125 Z M 6.671875 -1.734375 C 7.796875 -1.734375 8.691406 -2.101562 9.359375 -2.84375 C 10.035156 -3.59375 10.375 -4.613281 10.375 -5.90625 C 10.375 -7.195312 10.035156 -8.210938 9.359375 -8.953125 C 8.691406 -9.691406 7.796875 -10.0625 6.671875 -10.0625 C 5.546875 -10.0625 4.644531 -9.691406 3.96875 -8.953125 C 3.300781 -8.210938 2.96875 -7.195312 2.96875 -5.90625 C 2.96875 -4.613281 3.300781 -3.59375 3.96875 -2.84375 C 4.644531 -2.101562 5.546875 -1.734375 6.671875 -1.734375 Z M 6.671875 -1.734375 "/></g></g></g><g fill="#fff" fill-opacity="1"><g transform="translate(105.391901, 223.401136)"><g><path d="M 1.140625 0 L 1.140625 -11.796875 L 3.296875 -11.796875 L 8.84375 -3.484375 L 8.84375 -11.796875 L 11.015625 -11.796875 L 11.015625 0 L 8.84375 0 L 3.296875 -8.296875 L 3.296875 0 Z M 1.140625 0 "/></g></g></g><g fill="#fff" fill-opacity="1"><g transform="translate(120.165909, 223.401136)"><g><path d="M 1.140625 0 L 1.140625 -11.796875 L 3.296875 -11.796875 L 3.296875 -1.6875 L 8.53125 -1.6875 L 8.53125 0 Z M 1.140625 0 "/></g></g></g><g fill="#fff" fill-opacity="1"><g transform="translate(132.072964, 223.401136)"><g><path d="M 1.140625 0 L 1.140625 -11.796875 L 3.296875 -11.796875 L 3.296875 0 Z M 1.140625 0 "/></g></g></g><g fill="#fff" fill-opacity="1"><g transform="translate(139.139922, 223.401136)"><g><path d="M 1.140625 0 L 1.140625 -11.796875 L 3.296875 -11.796875 L 8.84375 -3.484375 L 8.84375 -11.796875 L 11.015625 -11.796875 L 11.015625 0 L 8.84375 0 L 3.296875 -8.296875 L 3.296875 0 Z M 1.140625 0 "/></g></g></g><g fill="#fff" fill-opacity="1"><g transform="translate(153.913932, 223.401136)"><g><path d="M 1.140625 0 L 1.140625 -11.796875 L 8.84375 -11.796875 L 8.84375 -10.0625 L 3.296875 -10.0625 L 3.296875 -6.828125 L 8.34375 -6.828125 L 8.34375 -5.140625 L 3.296875 -5.140625 L 3.296875 -1.734375 L 8.84375 -1.734375 L 8.84375 0 Z M 1.140625 0 "/></g></g></g><g fill="#fff" fill-opacity="1"><g transform="translate(166.27633, 223.401136)"><g/></g></g><g fill="#fff" fill-opacity="1"><g transform="translate(172.90425, 223.401136)"><g><path d="M 6.421875 0.203125 C 5.265625 0.203125 4.265625 -0.0507812 3.421875 -0.5625 C 2.585938 -1.070312 1.941406 -1.785156 1.484375 -2.703125 C 1.023438 -3.617188 0.796875 -4.6875 0.796875 -5.90625 C 0.796875 -7.101562 1.023438 -8.160156 1.484375 -9.078125 C 1.941406 -9.992188 2.585938 -10.707031 3.421875 -11.21875 C 4.265625 -11.738281 5.265625 -12 6.421875 -12 C 7.773438 -12 8.875 -11.675781 9.71875 -11.03125 C 10.570312 -10.382812 11.113281 -9.484375 11.34375 -8.328125 L 9.78125 -8.328125 C 9.601562 -9.054688 9.234375 -9.640625 8.671875 -10.078125 C 8.117188 -10.523438 7.367188 -10.75 6.421875 -10.75 C 5.578125 -10.75 4.835938 -10.554688 4.203125 -10.171875 C 3.578125 -9.785156 3.09375 -9.226562 2.75 -8.5 C 2.414062 -7.78125 2.25 -6.914062 2.25 -5.90625 C 2.25 -4.894531 2.414062 -4.023438 2.75 -3.296875 C 3.09375 -2.566406 3.578125 -2.007812 4.203125 -1.625 C 4.835938 -1.238281 5.578125 -1.046875 6.421875 -1.046875 C 7.367188 -1.046875 8.117188 -1.257812 8.671875 -1.6875 C 9.234375 -2.125 9.601562 -2.703125 9.78125 -3.421875 L 11.34375 -3.421875 C 11.113281 -2.285156 10.570312 -1.394531 9.71875 -0.75 C 8.875 -0.113281 7.773438 0.203125 6.421875 0.203125 Z M 6.421875 0.203125 "/></g></g></g><g fill="#fff" fill-opacity="1"><g transform="translate(187.661396, 223.401136)"><g><path d="M 6.609375 0.203125 C 5.453125 0.203125 4.4375 -0.0507812 3.5625 -0.5625 C 2.695312 -1.070312 2.019531 -1.785156 1.53125 -2.703125 C 1.039062 -3.628906 0.796875 -4.695312 0.796875 -5.90625 C 0.796875 -7.101562 1.039062 -8.160156 1.53125 -9.078125 C 2.019531 -9.992188 2.695312 -10.707031 3.5625 -11.21875 C 4.4375 -11.738281 5.453125 -12 6.609375 -12 C 7.773438 -12 8.789062 -11.738281 9.65625 -11.21875 C 10.53125 -10.707031 11.207031 -9.992188 11.6875 -9.078125 C 12.175781 -8.160156 12.421875 -7.101562 12.421875 -5.90625 C 12.421875 -4.695312 12.175781 -3.628906 11.6875 -2.703125 C 11.207031 -1.785156 10.53125 -1.070312 9.65625 -0.5625 C 8.789062 -0.0507812 7.773438 0.203125 6.609375 0.203125 Z M 6.609375 -1.046875 C 7.472656 -1.046875 8.234375 -1.238281 8.890625 -1.625 C 9.546875 -2.007812 10.054688 -2.566406 10.421875 -3.296875 C 10.785156 -4.023438 10.96875 -4.894531 10.96875 -5.90625 C 10.96875 -6.914062 10.785156 -7.78125 10.421875 -8.5 C 10.054688 -9.21875 9.546875 -9.769531 8.890625 -10.15625 C 8.234375 -10.539062 7.472656 -10.734375 6.609375 -10.734375 C 5.742188 -10.734375 4.984375 -10.539062 4.328125 -10.15625 C 3.671875 -9.769531 3.160156 -9.21875 2.796875 -8.5 C 2.429688 -7.78125 2.25 -6.914062 2.25 -5.90625 C 2.25 -4.894531 2.429688 -4.023438 2.796875 -3.296875 C 3.160156 -2.566406 3.671875 -2.007812 4.328125 -1.625 C 4.984375 -1.238281 5.742188 -1.046875 6.609375 -1.046875 Z M 6.609375 -1.046875 "/></g></g></g><g fill="#fff" fill-opacity="1"><g transform="translate(203.497866, 223.401136)"><g><path d="M 0.5 0 L 4.859375 -11.796875 L 6.359375 -11.796875 L 10.6875 0 L 9.1875 0 L 8.109375 -3.03125 L 3.078125 -3.03125 L 1.984375 0 Z M 3.5 -4.1875 L 7.6875 -4.1875 L 5.59375 -10.015625 Z M 3.5 -4.1875 "/></g></g></g><g fill="#fff" fill-opacity="1"><g transform="translate(217.310598, 223.401136)"><g><path d="M 6.421875 0.203125 C 5.265625 0.203125 4.265625 -0.0507812 3.421875 -0.5625 C 2.585938 -1.070312 1.941406 -1.785156 1.484375 -2.703125 C 1.023438 -3.617188 0.796875 -4.6875 0.796875 -5.90625 C 0.796875 -7.101562 1.023438 -8.160156 1.484375 -9.078125 C 1.941406 -9.992188 2.585938 -10.707031 3.421875 -11.21875 C 4.265625 -11.738281 5.265625 -12 6.421875 -12 C 7.773438 -12 8.875 -11.675781 9.71875 -11.03125 C 10.570312 -10.382812 11.113281 -9.484375 11.34375 -8.328125 L 9.78125 -8.328125 C 9.601562 -9.054688 9.234375 -9.640625 8.671875 -10.078125 C 8.117188 -10.523438 7.367188 -10.75 6.421875 -10.75 C 5.578125 -10.75 4.835938 -10.554688 4.203125 -10.171875 C 3.578125 -9.785156 3.09375 -9.226562 2.75 -8.5 C 2.414062 -7.78125 2.25 -6.914062 2.25 -5.90625 C 2.25 -4.894531 2.414062 -4.023438 2.75 -3.296875 C 3.09375 -2.566406 3.578125 -2.007812 4.203125 -1.625 C 4.835938 -1.238281 5.578125 -1.046875 6.421875 -1.046875 C 7.367188 -1.046875 8.117188 -1.257812 8.671875 -1.6875 C 9.234375 -2.125 9.601562 -2.703125 9.78125 -3.421875 L 11.34375 -3.421875 C 11.113281 -2.285156 10.570312 -1.394531 9.71875 -0.75 C 8.875 -0.113281 7.773438 0.203125 6.421875 0.203125 Z M 6.421875 0.203125 "/></g></g></g><g fill="#fff" fill-opacity="1"><g transform="translate(232.067746, 223.401136)"><g><path d="M 1.25 0 L 1.25 -11.796875 L 2.65625 -11.796875 L 2.65625 -6.59375 L 8.78125 -6.59375 L 8.78125 -11.796875 L 10.203125 -11.796875 L 10.203125 0 L 8.78125 0 L 8.78125 -5.421875 L 2.65625 -5.421875 L 2.65625 0 Z M 1.25 0 "/></g></g></g><g fill="#fff" fill-opacity="1"><g transform="translate(246.133454, 223.401136)"><g><path d="M 1.25 0 L 1.25 -11.796875 L 2.65625 -11.796875 L 2.65625 0 Z M 1.25 0 "/></g></g></g><g fill="#fff" fill-opacity="1"><g transform="translate(252.660753, 223.401136)"><g><path d="M 1.25 0 L 1.25 -11.796875 L 2.65625 -11.796875 L 8.953125 -2.34375 L 8.953125 -11.796875 L 10.375 -11.796875 L 10.375 0 L 8.953125 0 L 2.65625 -9.453125 L 2.65625 0 Z M 1.25 0 "/></g></g></g><g fill="#fff" fill-opacity="1"><g transform="translate(266.895105, 223.401136)"><g><path d="M 6.328125 0.203125 C 5.222656 0.203125 4.253906 -0.0507812 3.421875 -0.5625 C 2.585938 -1.070312 1.941406 -1.785156 1.484375 -2.703125 C 1.023438 -3.617188 0.796875 -4.679688 0.796875 -5.890625 C 0.796875 -7.085938 1.023438 -8.144531 1.484375 -9.0625 C 1.953125 -9.988281 2.613281 -10.707031 3.46875 -11.21875 C 4.332031 -11.738281 5.351562 -12 6.53125 -12 C 7.851562 -12 8.953125 -11.675781 9.828125 -11.03125 C 10.710938 -10.394531 11.285156 -9.515625 11.546875 -8.390625 L 9.90625 -8.390625 C 9.75 -9.097656 9.375 -9.660156 8.78125 -10.078125 C 8.195312 -10.492188 7.445312 -10.703125 6.53125 -10.703125 C 5.65625 -10.703125 4.894531 -10.507812 4.25 -10.125 C 3.613281 -9.738281 3.117188 -9.1875 2.765625 -8.46875 C 2.421875 -7.75 2.25 -6.890625 2.25 -5.890625 C 2.25 -4.890625 2.421875 -4.023438 2.765625 -3.296875 C 3.109375 -2.578125 3.585938 -2.023438 4.203125 -1.640625 C 4.828125 -1.253906 5.550781 -1.0625 6.375 -1.0625 C 7.632812 -1.0625 8.582031 -1.425781 9.21875 -2.15625 C 9.863281 -2.894531 10.226562 -3.90625 10.3125 -5.1875 L 6.90625 -5.1875 L 6.90625 -6.3125 L 11.765625 -6.3125 L 11.765625 0 L 10.46875 0 L 10.359375 -1.9375 C 9.929688 -1.25 9.40625 -0.71875 8.78125 -0.34375 C 8.164062 0.0195312 7.347656 0.203125 6.328125 0.203125 Z M 6.328125 0.203125 "/></g></g></g><path stroke-linecap="butt" transform="matrix(0.740533, 0, 0, 0.75, 309.862602, 156.094502)" fill="none" stroke-linejoin="miter" d="M 0.000917579 3.998998 L 33.428069 3.998998 " stroke="#fff" stroke-width="8" stroke-opacity="1" stroke-miterlimit="4"/><path stroke-linecap="butt" transform="matrix(0.740533, 0, 0, 0.75, 309.862602, 188.999988)" fill="none" stroke-linejoin="miter" d="M 0.000917579 4.000017 L 33.428069 4.000017 " stroke="#fff" stroke-width="8" stroke-opacity="1" stroke-miterlimit="4"/><path stroke-linecap="butt" transform="matrix(0.740533, 0.00000000000000063, -0.000000000000000638, 0.75, 309.862602, 173.194501)" fill="none" stroke-linejoin="miter" d="M 0.000917579 4.001083 L 33.428069 4.001083 " stroke="#fff" stroke-width="8" stroke-opacity="1" stroke-miterlimit="4"/></svg>