<?xml version="1.0" encoding="UTF-8"?>
<!-- Generator: Adobe Illustrator 27.2.0, SVG Export Plug-In . SVG Version: 6.00 Build 0)  -->
<svg xmlns="http://www.w3.org/2000/svg" xmlns:xlink="http://www.w3.org/1999/xlink" version="1.1" id="Capa_1" x="0px" y="0px" viewBox="0 0 512 512" style="enable-background:new 0 0 512 512;" xml:space="preserve" width="512" height="512">
<g id="XMLID_82_">
	<g id="XMLID_87_">
		<path style="fill:#FDCDC6;" d="M472,205.448v-104.43c0-6.07-4.93-11-11-11c-6.08,0-11,4.93-11,11v104.43    c-17.29,4.82-30,20.71-30,39.5v45.06c0,6.08,4.92,11,11,11h60c6.08,0,11-4.92,11-11v-45.06    C502,226.158,489.29,210.269,472,205.448z M480,279.008h-38v-34.06c0-10.47,8.52-19,19-19s19,8.53,19,19V279.008z"/>
	</g>
	<g id="XMLID_00000041982865157749393260000015286433136377167761_">
		<path style="fill:#FDCDC6;" d="M206.205,509.787c-0.336,0-0.675-0.016-1.015-0.047c-4.143-0.383-7.715-3.07-9.23-6.944    l-10.244-26.177l-37.373,5.656c-4.394,0.67-8.756-1.378-11.057-5.181c-2.302-3.801-2.089-8.614,0.538-12.198l33.999-46.389    c3.591-4.898,10.475-5.961,15.375-2.369c4.899,3.591,5.961,10.475,2.369,15.375l-18.36,25.051l19.904-3.013    c5.087-0.771,10.018,2.083,11.89,6.867l5.459,13.95l38.205-61.3c3.213-5.156,9.996-6.732,15.153-3.517    c5.155,3.213,6.73,9.997,3.517,15.153l-49.797,79.899C213.519,507.846,209.978,509.787,206.205,509.787z"/>
	</g>
	<g id="XMLID_00000026860284741454147720000009386069533182934451_">
		<path style="fill:#FDCDC6;" d="M305.795,509.787c-3.772,0-7.313-1.94-9.333-5.182l-49.797-79.899    c-3.214-5.156-1.639-11.94,3.517-15.153c5.157-3.216,11.94-1.64,15.153,3.517l38.205,61.3l5.459-13.95    c1.872-4.785,6.814-7.634,11.89-6.867l19.904,3.013l-18.36-25.051c-3.592-4.9-2.53-11.784,2.369-15.375    c4.9-3.591,11.783-2.531,15.375,2.369l33.999,46.389c2.627,3.584,2.84,8.397,0.538,12.198c-2.301,3.802-6.664,5.849-11.057,5.181    l-37.373-5.656l-10.244,26.177c-1.516,3.874-5.088,6.562-9.23,6.944C306.47,509.771,306.131,509.787,305.795,509.787z"/>
	</g>
	<g id="XMLID_83_">
		<path d="M465.33,90.799l-205-87.7c-2.77-1.18-5.89-1.18-8.66,0l-205,87.7c-4.05,1.74-6.67,5.72-6.67,10.13    c0,4.41,2.64,8.38,6.69,10.11l73.31,31.19v98.07c0,3.76,1.92,7.26,5.09,9.28l4.04,2.57c37.95,24.19,81.81,36.99,126.84,37h0.05    c45.01,0,88.86-12.78,126.79-36.96l4.1-2.62c3.17-2.02,5.09-5.51,5.09-9.27v-98.07l73.31-31.19c4.05-1.73,6.69-5.7,6.69-10.11    C472,96.519,469.38,92.539,465.33,90.799z M370,234.258c-69.37,43.68-158.59,43.68-228,0v-82.67l109.69,46.66    c1.38,0.59,2.85,0.88,4.31,0.88s2.93-0.29,4.31-0.88L370,151.588V234.258z M256,176.178l-176.97-75.29L256,25.178l176.97,75.71    L256,176.178z"/>
	</g>
	<g id="XMLID_00000057116095953233734370000004095304315649715078_">
		<path d="M501.001,449.806c-0.297,0-0.595-0.012-0.893-0.036l-176.782-14.373c-6.055-0.492-10.564-5.8-10.072-11.855    c0.492-6.055,5.799-10.563,11.855-10.072L490,426.875v-85.691l-161.306,13.114c-6.069,0.491-11.362-4.018-11.855-10.072    c-0.492-6.056,4.018-11.363,10.072-11.855l173.197-14.081c3.055-0.252,6.089,0.794,8.348,2.877    c2.259,2.082,3.544,5.015,3.544,8.087v109.553c0,3.072-1.285,6.005-3.544,8.087C506.417,448.773,503.752,449.806,501.001,449.806z    "/>
	</g>
	<g id="XMLID_00000058557167183477779450000018054354093429006236_">
		<path d="M10.999,449.806c-2.752,0-5.416-1.032-7.455-2.913C1.285,444.811,0,441.878,0,438.806V329.253    c0-3.072,1.285-6.005,3.544-8.087c2.259-2.083,5.29-3.132,8.348-2.877l175.649,14.28c6.055,0.492,10.564,5.8,10.072,11.855    s-5.778,10.572-11.855,10.072L22,341.184v85.691l164.327-13.36c6.093-0.488,11.363,4.018,11.855,10.072    c0.492,6.056-4.018,11.363-10.072,11.855L11.892,449.77C11.594,449.794,11.296,449.806,10.999,449.806z"/>
	</g>
	<g id="XMLID_89_">
		<path style="fill:#FDCDC6;" d="M322.23,435.272c-0.297,0-0.595-0.012-0.893-0.036L256,429.923l-65.338,5.312    c-3.058,0.247-6.089-0.795-8.348-2.877s-3.544-5.015-3.544-8.087v-80.484c0-3.072,1.285-6.005,3.544-8.087    c2.259-2.083,5.29-3.129,8.348-2.877L256,338.136l65.338-5.312c3.058-0.249,6.089,0.795,8.348,2.877s3.544,5.015,3.544,8.087    v80.484c0,3.072-1.285,6.005-3.544,8.087C327.646,434.239,324.981,435.272,322.23,435.272z M256,407.887    c0.298,0,0.595,0.012,0.892,0.036l54.338,4.418v-56.623l-54.338,4.418c-0.594,0.049-1.189,0.049-1.783,0l-54.338-4.418v56.623    l54.338-4.418C255.405,407.899,255.702,407.887,256,407.887z"/>
	</g>
</g>















</svg>
